<svg version="1.2" xmlns="http://www.w3.org/2000/svg" viewBox="0 0 43 92" width="43" height="92"><style>.a{fill:#fff}.b{fill:#1a1a1a}.c{fill:#333}</style><path class="a" d="m0.8 82.3v-27.1l25.4 8v28.1l-25.4-9z"/><path class="b" d="m1.3 82.3v-27.1l-0.6 0.5 22.2 7 3.1 1-0.3-0.5v28.1l0.6-0.5-22.2-7.9-3.1-1.1c-0.6-0.2-0.9 0.8-0.3 1l22.2 7.9 3.1 1.1q0.1 0 0.3 0 0.1 0 0.2-0.1 0.1 0 0.1-0.1 0.1-0.2 0.1-0.3v-28.1q0-0.1-0.1-0.1 0-0.1 0-0.2-0.1 0-0.2-0.1 0 0-0.1-0.1l-22.2-7-3.1-1q-0.1 0-0.3 0-0.1 0-0.2 0.1-0.1 0.1-0.1 0.2-0.1 0.1-0.1 0.2v27.1c0 0.6 1 0.6 1 0z"/><path class="a" d="m26.2 63.2l14.1-10.3v28.2l-14.1 10.2v-28.1z"/><path class="b" d="m26.4 63.7l12.4-9.1 1.8-1.3-0.8-0.4v28.2l0.3-0.4-12.4 8.9-1.8 1.3 0.8 0.4v-28.1c0-0.6-1-0.6-1 0v28.1c0 0.4 0.4 0.7 0.7 0.5l7.4-5.4 5-3.6 1.4-1c0.3-0.2 0.6-0.3 0.6-0.7 0.1-0.6 0-1.4 0-2v-26.2c0-0.4-0.4-0.7-0.7-0.5l-12.4 9.1-1.8 1.3c-0.5 0.4 0 1.2 0.5 0.9z"/><path class="a" d="m0.8 55.2l14.4-11 25.1 8.7-14.1 10.3-25.4-8z"/><path class="b" d="m1.1 55.6l6.8-5.2 4.8-3.8 1.8-1.3c0.1-0.1 0.8-0.5 0.9-0.7 0-0.2-0.3 0.1-0.3 0 0 0.1 0.2 0.1 0.2 0.1 0.3 0.2 0.7 0.3 1.1 0.4l4.2 1.5 11.9 4.1 7.7 2.6-0.1-0.9-7 5.1-4.7 3.5-1.7 1.2c-0.1 0.1-0.8 0.5-0.8 0.6 0-0.1 0.5 0.1 0.3-0.1q0 0 0 0-0.1 0-0.1 0-0.1-0.1-0.1-0.1 0 0-0.1 0l-1.2-0.4-4.3-1.3-11.9-3.8-7.5-2.4c-0.6-0.2-0.9 0.8-0.3 1l18.3 5.8 4.8 1.5c0.7 0.2 1.5 0.6 2.2 0.7 0.6 0.1 1.4-0.7 1.8-1.1l4.5-3.2 8.3-6.1q0.1-0.1 0.2-0.2 0-0.2 0-0.3 0-0.2-0.1-0.3-0.1-0.1-0.2-0.1l-18.5-6.4-4.7-1.6c-0.6-0.2-1.3-0.6-2-0.7-0.7-0.1-1.5 0.9-2 1.3l-4.6 3.5-8.1 6.3c-0.5 0.3 0 1.2 0.5 0.8z"/><path class="a" d="m6.7 37.5h26.3v24.7l-26.3-0.6v-24.1z"/><path class="b" d="m6.7 38h26.3l-0.5-0.5v24.7l0.5-0.5-23.1-0.6h-3.2l0.5 0.5v-24.1c0-0.7-1-0.7-1 0v24.1q0 0.1 0 0.1 0 0.1 0.1 0.2 0.1 0.1 0.2 0.1 0.1 0.1 0.2 0.1l23.1 0.5 3.2 0.1q0.1 0 0.2 0 0.1 0 0.2-0.1 0-0.1 0.1-0.2 0-0.1 0-0.2v-24.7q0-0.1 0-0.2-0.1-0.1-0.1-0.2-0.1-0.1-0.2-0.1-0.1 0-0.2 0h-26.3c-0.7 0-0.7 1 0 1z"/><path class="a" d="m6.7 37.5l9.3-11.4h26.3l-9.3 11.4h-26.3z"/><path class="b" d="m7 37.8l5.3-6.4 3.2-3.9c0.2-0.3 0.7-0.6 0.8-1 0.1-0.3-0.2 0.3-0.3 0.1 0 0 0.2 0 0.2 0 0.8 0.1 1.8 0 2.6 0h23.5l-0.3-0.9-5.3 6.4-3.2 4c-0.2 0.2-0.7 0.6-0.8 0.9-0.1 0.4 0-0.6 0.3 0q0 0-0.1 0 0 0 0 0 0 0-0.1 0 0 0 0 0c-0.9-0.1-1.8 0-2.6 0h-23.5c-0.7 0-0.7 1 0 1h25.8c0.6 0 0.8-0.1 1.2-0.6l2.7-3.3 6.3-7.7c0.3-0.3 0.1-0.8-0.4-0.8h-25.8c-0.6 0-0.8 0.1-1.2 0.5l-2.7 3.4-6.3 7.6c-0.4 0.5 0.3 1.2 0.7 0.7z"/><path class="a" d="m33 62.2v-24.7l9.3-11.4v25.9l-9.3 10.2z"/><path class="b" d="m33.5 62.2v-16.8c0-2.5 0.1-5.1 0-7.6 0-0.6 0.1-0.1-0.1 0 0.1-0.1 0.5-0.6 0.6-0.8l2.8-3.4 5.9-7.2-0.9-0.3v25.2c0 0.1 0 0.5 0 0.7 0.1 0.1 0.1-0.3 0.2-0.3-0.1 0-0.2 0.2-0.3 0.2l-2.6 3-6.4 7c-0.5 0.4 0.2 1.2 0.7 0.7l5.5-6.1 3.2-3.5c0.4-0.4 0.7-0.7 0.7-1.2 0.2-6.3 0-12.5 0-18.8v-6.9c0-0.4-0.5-0.7-0.8-0.4l-5.1 6.2-3.2 3.9c-0.4 0.5-1.1 1.1-1.2 1.7-0.1 0.6 0 1.3 0 2v22.7c0 0.7 1 0.7 1 0z"/><path class="a" d="m9 39.7h21.7v20.3l-21.7-0.5v-19.8z"/><path class="b" d="m9 39.9h21.7l-0.3-0.2v20.3l0.3-0.2-19-0.5-2.7-0.1 0.2 0.3v-19.8q0-0.1 0-0.2-0.1-0.1-0.2-0.1-0.1 0-0.2 0.1 0 0.1-0.1 0.2v19.8q0.1 0 0.1 0.1 0 0 0 0.1 0.1 0 0.1 0 0.1 0 0.1 0l19 0.5 2.7 0.1q0 0 0.1 0 0-0.1 0-0.1 0.1 0 0.1-0.1 0 0 0-0.1v-20.3q0-0.1 0-0.1 0-0.1-0.1-0.1 0-0.1 0-0.1-0.1 0-0.1 0h-21.7q-0.1 0-0.2 0.1 0 0.1-0.1 0.2 0.1 0.1 0.1 0.1 0.1 0.1 0.2 0.1z"/><path class="a" d="m18 14v24.8l22.7-7.7v-24.7l-22.7 7.6z"/><path class="b" d="m17.5 14.1v24.7q0 0.1 0.1 0.2 0 0.1 0.1 0.2 0.1 0.1 0.2 0.1 0.1 0 0.2 0l19.9-6.8 2.8-0.9q0.1 0 0.1-0.1 0.1 0 0.2-0.1 0-0.1 0-0.1 0.1-0.1 0.1-0.2v-24.7q0-0.2-0.1-0.3 0-0.1-0.1-0.1-0.1-0.1-0.2-0.1-0.2-0.1-0.3 0l-19.8 6.7-2.8 1c-0.6 0.2-0.4 1.1 0.2 0.9l19.9-6.7 2.8-1-0.6-0.4v24.7l0.3-0.5-19.8 6.8-2.8 0.9 0.6 0.5v-24.7c0-0.7-1-0.7-1 0z"/><path class="a" d="m18 14l-17.5-6 20.5-7.5 19.7 5.9-22.7 7.6z"/><path class="b" d="m18.1 13.6l-15.3-5.3-2.2-0.8v1l17.5-6.4c0.9-0.3 2-0.6 2.8-1.1 0.4-0.1-0.1-0.1 0.1 0 0.3 0.2 0.7 0.2 1 0.3l10.1 3 8.4 2.5v-0.9l-19.8 6.7-2.8 1c-0.6 0.2-0.4 1.1 0.2 0.9l19.9-6.7 2.8-1q0.2 0 0.3-0.1 0.1-0.2 0.1-0.3 0-0.2-0.1-0.4-0.1-0.1-0.3-0.1l-17.8-5.3c-0.6-0.2-1.5-0.7-2.1-0.6-0.7 0.1-1.4 0.5-2 0.7l-10.5 3.9-8 2.9q-0.2 0.1-0.3 0.2-0.1 0.2-0.1 0.3 0 0.2 0.1 0.3 0.1 0.2 0.3 0.2l15.3 5.3 2.2 0.7c0.6 0.2 0.8-0.7 0.2-0.9z"/><path class="a" d="m18 14v24.8l-17.5-6.7v-24.1l17.5 6z"/><path class="b" d="m17.5 14.1v24.7l0.6-0.5-15.3-5.8-2.2-0.9 0.4 0.5v-24.1l-0.6 0.5 15.3 5.3 2.2 0.7c0.6 0.2 0.8-0.7 0.2-0.9l-15.3-5.3-2.2-0.8q-0.1 0-0.2 0-0.1 0.1-0.2 0.1-0.1 0.1-0.2 0.2 0 0.1 0 0.2v24.1q0 0.1 0 0.2 0.1 0.1 0.1 0.1 0.1 0.1 0.1 0.1 0.1 0.1 0.2 0.1l15.3 5.9 2.2 0.8c0.3 0.1 0.6-0.2 0.6-0.5v-24.7c0-0.7-1-0.7-1 0z"/><path class="a" d="m20.5 22.5c0 1.3 1.3 2.5 3.4 3.2-0.4 2.1-0.1 3.7 1 4.4 1.1 0.6 2.8 0.2 4.5-1.2 1.5 1.3 3.1 1.9 4.2 1.2 1.2-0.7 1.5-2.4 1.1-4.5 2.1-0.7 3.3-1.8 3.3-3.1 0-1.3-1.3-2.4-3.3-3.1 0.5-2.2 0.1-3.8-1.1-4.5-1.1-0.6-2.7-0.1-4.3 1.3-1.7-1.5-3.3-1.9-4.4-1.2-1.1 0.6-1.4 2.3-1 4.4-2 0.6-3.4 1.8-3.4 3.1z"/><path class="c" d="m34.3 20.1q-0.3-0.1-0.5-0.2 0-0.2 0.1-0.3c0.3-1.9 0.1-3.4-0.8-3.8-0.8-0.5-2.1 0-3.4 1.1q-0.2 0.2-0.4 0.4-0.1-0.1-0.3-0.2c-1.4-1.3-2.8-1.8-3.6-1.3-0.8 0.4-1.1 1.8-0.7 3.6q0 0.2 0.1 0.5-0.3 0.1-0.6 0.2c-1.6 0.5-2.7 1.4-2.7 2.4 0 0.9 1.2 1.9 2.9 2.5q0.2 0.1 0.4 0.1-0.1 0.3-0.1 0.6c-0.4 1.7-0.1 3.1 0.7 3.5 0.8 0.5 2.2 0 3.6-1.2q0.2-0.1 0.3-0.3 0.2 0.2 0.4 0.4c1.4 1.1 2.7 1.6 3.5 1.1 0.8-0.5 1.1-1.9 0.7-3.7q0-0.2-0.1-0.4 0.2 0 0.3-0.1c1.8-0.6 2.9-1.5 2.9-2.5 0-1-1-1.9-2.7-2.4z"/><path class="a" d="m33.9 24.4l-0.3 0.1q0-0.3-0.1-0.5-0.1-0.3-0.2-0.5-0.1-0.3-0.2-0.5-0.1-0.3-0.2-0.5 0.1-0.2 0.2-0.5 0.1-0.2 0.2-0.5 0.1-0.2 0.1-0.5 0.1-0.2 0.2-0.5 0.2 0.1 0.5 0.2c1.4 0.5 2.3 1.2 2.3 1.8 0 0.6-1 1.4-2.5 1.9zm-0.6 1.2q0 0.3 0.1 0.5 0 0.3 0 0.6 0 0.2 0 0.5 0 0.2-0.1 0.5-0.1 0.8-0.5 1c-0.5 0.2-1.5-0.1-2.6-1.1q-0.2-0.2-0.4-0.4 0.2-0.2 0.3-0.4 0.2-0.2 0.4-0.4 0.1-0.2 0.3-0.4 0.1-0.2 0.3-0.4 0.2 0 0.5-0.1 0.3 0 0.5 0 0.3-0.1 0.6-0.1 0.2-0.1 0.5-0.1 0 0.2 0.1 0.3zm-6.5 3c-0.4 0.2-0.8 0.2-1.1 0-0.4-0.2-0.6-1.3-0.4-2.8q0.1-0.3 0.1-0.5 0.3 0 0.6 0.1 0.2 0 0.5 0.1 0.2 0 0.5 0 0.3 0.1 0.5 0.1 0.2 0.2 0.3 0.4 0.2 0.2 0.4 0.4 0.1 0.2 0.3 0.4 0.2 0.2 0.4 0.4-0.2 0.2-0.3 0.3-0.2 0.2-0.4 0.3-0.2 0.2-0.5 0.3-0.2 0.2-0.4 0.3-0.2 0.1-0.5 0.2zm-2.2-4.2q-0.3-0.1-0.5-0.2-0.2-0.1-0.5-0.2-0.2-0.1-0.4-0.3-0.2-0.1-0.4-0.3-0.6-0.5-0.6-0.9c0-0.6 0.8-1.3 2.2-1.8q0.3-0.1 0.6-0.2 0.1 0.3 0.1 0.5 0.1 0.3 0.2 0.5 0.1 0.3 0.2 0.5 0.1 0.3 0.2 0.5-0.1 0.2-0.2 0.5-0.1 0.2-0.2 0.5-0.1 0.2-0.2 0.5 0 0.2-0.1 0.5-0.2-0.1-0.4-0.1zm0.7-5.1c-0.3-1.5-0.1-2.7 0.4-3 0.5-0.3 1.7 0.2 2.9 1.3q0.1 0.1 0.2 0.2-0.1 0.2-0.3 0.4-0.2 0.2-0.4 0.4-0.1 0.2-0.3 0.4-0.1 0.2-0.3 0.4-0.2 0-0.5 0.1-0.3 0-0.5 0-0.3 0.1-0.5 0.1-0.3 0.1-0.6 0.1 0-0.2-0.1-0.4zm6.7 1.6q-0.2-0.4-0.4-0.8 0.1 0.1 0.3 0.1 0.2 0 0.4 0 0.1 0.1 0.3 0.1 0.2 0 0.4 0.1-0.2 0.6-0.5 1.3-0.2-0.4-0.5-0.8zm-2.7-2.7q0.5 0.6 0.9 1.2-0.9-0.1-1.8 0 0.4-0.6 0.9-1.2zm-2.7 2.7q-0.3 0.4-0.5 0.8-0.3-0.7-0.5-1.3 0.7-0.2 1.4-0.3-0.2 0.4-0.4 0.8zm0.4 4q-0.1 0-0.3-0.1-0.2 0-0.4 0-0.2 0-0.3-0.1-0.2 0-0.4 0 0.2-0.7 0.5-1.4 0.2 0.4 0.5 0.8 0.2 0.4 0.4 0.8zm2.3 1.9q-0.5-0.6-0.9-1.2 0.4 0.1 0.9 0 0.5 0.1 0.9 0-0.1 0.2-0.2 0.3-0.1 0.2-0.2 0.3-0.1 0.1-0.3 0.3-0.1 0.1-0.2 0.3zm3.2-3.6q0.1 0.2 0.1 0.4 0.1 0.1 0.2 0.3 0 0.2 0.1 0.4 0 0.1 0.1 0.3-0.2 0-0.4 0.1-0.1 0-0.3 0.1-0.2 0-0.4 0-0.2 0-0.3 0.1 0.2-0.4 0.4-0.8 0.3-0.4 0.5-0.9zm-1 0.5q-0.4 0.7-0.8 1.2-0.7 0.1-1.4 0.1-0.7 0-1.4 0-0.4-0.6-0.8-1.3-0.3-0.6-0.6-1.2 0.3-0.6 0.6-1.3 0.4-0.6 0.8-1.2 0.7 0 1.4 0 0.7 0 1.4 0 0.4 0.6 0.7 1.2 0.4 0.6 0.7 1.3-0.3 0.6-0.7 1.2zm1.4-7.4c0.5 0.3 0.7 1.5 0.4 3.1q0 0.2-0.1 0.3-0.2 0-0.5-0.1-0.2 0-0.5-0.1-0.3 0-0.5 0-0.3-0.1-0.5-0.1-0.2-0.2-0.3-0.4-0.2-0.2-0.4-0.4-0.1-0.3-0.3-0.5-0.2-0.2-0.3-0.3 0.1-0.2 0.3-0.4c1.2-1 2.2-1.4 2.7-1.1z"/><path class="c" d="m29.3 21.1c0.6 0 1.1 0.3 1.3 0.9 0.2 0.5 0.1 1.1-0.3 1.5-0.4 0.4-1 0.5-1.5 0.3-0.6-0.2-0.9-0.8-0.9-1.3q0-0.3 0.1-0.5 0.1-0.3 0.3-0.5 0.2-0.2 0.5-0.3 0.2-0.1 0.5-0.1z"/><path  d="m24.5 52.1v3.6q0 0.1 0 0.2 0 0.1 0 0.3 0 0.1 0 0.2-0.1 0.1-0.1 0.2 0 0.1 0 0.2-0.1 0.1-0.1 0.1 0 0.1-0.1 0.2 0 0.1-0.1 0.1-0.1 0.2-0.2 0.2-0.1 0.1-0.3 0.2-0.1 0.1-0.3 0.1-0.1 0-0.3 0-0.1 0-0.2 0-0.2 0-0.3 0-0.1-0.1-0.2-0.1-0.2-0.1-0.3-0.2l0.4-0.7q0.1 0.1 0.2 0.1 0 0.1 0.1 0.1 0.1 0 0.2 0 0 0 0.1 0 0.1 0.1 0.2 0 0 0 0.1 0 0.1-0.1 0.1-0.1 0.1-0.1 0.1-0.1 0.2-0.3 0.2-1v-3.6z"/><path  d="m28.9 52.9l-0.6 0.4q-0.1 0-0.1-0.1-0.1-0.1-0.1-0.1 0-0.1-0.1-0.1 0-0.1-0.1-0.1-0.1 0-0.1-0.1-0.1 0-0.1 0-0.1 0-0.1 0-0.1 0-0.2 0 0 0-0.1 0-0.1 0-0.2 0 0 0.1-0.1 0.1-0.1 0-0.1 0.1-0.1 0-0.1 0.1-0.1 0-0.1 0.1 0 0.1 0 0.1-0.1 0.1-0.1 0.2 0 0.4 0.6 0.6l0.6 0.2q0.1 0.1 0.3 0.2 0.1 0 0.2 0.1 0.1 0.1 0.3 0.2 0.1 0.1 0.2 0.2 0 0.1 0.1 0.2 0.1 0.1 0.1 0.3 0 0.1 0.1 0.2 0 0.1 0 0.3 0 0.1-0.1 0.3 0 0.2 0 0.4-0.1 0.1-0.2 0.3-0.1 0.1-0.2 0.2-0.2 0.1-0.3 0.2-0.1 0.1-0.3 0.2-0.2 0.1-0.3 0.1-0.2 0-0.4 0-0.2 0-0.3 0-0.2 0-0.3-0.1-0.2 0-0.3-0.1-0.2-0.1-0.3-0.2-0.1-0.1-0.2-0.3-0.1-0.1-0.2-0.2 0-0.2-0.1-0.4 0-0.1 0-0.3l0.8-0.2q0 0.1 0 0.2 0 0.1 0 0.2 0.1 0.1 0.1 0.1 0 0.1 0.1 0.2 0.1 0.1 0.3 0.2 0.2 0.1 0.4 0.1 0.2 0.1 0.3 0 0.2-0.1 0.4-0.2 0-0.1 0.1-0.2 0 0 0.1-0.1 0-0.1 0-0.2 0-0.1 0-0.2 0 0 0 0 0-0.1 0-0.1 0-0.1 0-0.1 0 0 0-0.1 0 0 0 0 0-0.1-0.1-0.1 0 0 0-0.1 0 0 0 0-0.1 0-0.1-0.1 0 0-0.1 0 0-0.1 0-0.1-0.1 0-0.1 0 0-0.1-0.1-0.1 0 0-0.1 0 0-0.1-0.1-0.1 0 0 0 0l-0.6-0.2q-1.1-0.5-1.1-1.4 0-0.2 0-0.3 0-0.2 0.1-0.3 0.1-0.1 0.2-0.3 0-0.1 0.2-0.2 0.1-0.1 0.2-0.2 0.2 0 0.3-0.1 0.2-0.1 0.3-0.1 0.2 0 0.3 0 1 0 1.5 0.9z"/></svg>